<?xml version="1.0" encoding="UTF-8" standalone="no"?>
<!-- Created with Inkscape (http://www.inkscape.org/) -->
<svg width="210mm" height="297mm" viewBox="0 0 210 297" version="1.1" id="svg5" xml:space="preserve" xmlns:inkscape="http://www.inkscape.org/namespaces/inkscape" xmlns:sodipodi="http://sodipodi.sourceforge.net/DTD/sodipodi-0.dtd" xmlns="http://www.w3.org/2000/svg" xmlns:svg="http://www.w3.org/2000/svg">
	<namedview id="namedview7" pagecolor="#ffffff" bordercolor="#000000" borderopacity="0.25" inkscape:showpageshadow="2" inkscape:pageopacity="0.0" inkscape:pagecheckerboard="0" inkscape:deskcolor="#d1d1d1" inkscape:document-units="mm" showgrid="false" />
	<defs id="defs2" />
	<g inkscape:label="Layer 1" inkscape:groupmode="layer" id="layer1">
		<g style="fill:none" id="g46" transform="matrix(0.26458333,0,0,0.26458333,-316.95226,-197.28458)">
			<path stroke="#000000" stroke-width="4.37825" d="m 1235.063,1071.626 363.9419,-206.87218 m 359.0036,208.48168 -361.2054,-208.51397 m 363.3125,208.34217 -363.2977,213.6026 m -363.9445,-215.0262 366.1309,214.5341 m -365.5864,-125.6278 365.5837,213.4396 m 361.2233,-216.4851 -363.4218,216.4851 m -362.8472,-300.4571 v 87.5648 m 44.379,25.9471 -43.5581,25.771 m 43.8744,110.688 -44.6953,25.8586 m 44.0452,112.7507 -42.9506,23.7959 m 362.8472,-201.1257 v 87.5649 m 362.2999,-23.2595 -363.3797,213.5764 m 363.407,-129.1693 -361.2327,211.6718 m -1.0945,-84.3906 v 86.3061 m 360.1108,-433.4464 -361.1912,212.2082 m 362.2858,-129.2951 -361.5376,212.1917 m 0.8794,-86.0436 v 86.1968 m 360.6527,-20.2658 -362.2989,208.1309 m 364.4935,-126.296 -362.8473,209.8823 m -363.6407,-568.5909 365.8419,215.0748 m -366.1429,-126.723 365.31,208.5141 m -363.9418,-297.7208 -0.2736,90.8486 m -1.6299,46.8194 366.1309,214.5346 m -366.1429,-126.723 362.8472,208.7877 m -361.7526,-297.7208 v 90.575 m 0.5592,47.3672 363.1089,211.7704 m -363.1208,-123.9592 362.8471,208.7877 m -362.2998,-297.9945 v 91.1223 m 361.7526,119.5809 -0.5473,87.5649 m 361.7527,-707.3605 v 84.8286 m -44.8771,163.0896 45.9716,27.3641 m -45.9716,-163.9106 45.9716,27.364 m -44.877,247.6446 45.9716,27.364 m -2.1891,-276.9241 -1.0946,86.744 m 1.0946,49.8025 v 87.0178 m 1.0945,51.4443 v 85.3759" id="path25" />
			<path id="path27" style="color:#000000;fill:#000000;stroke-width:0.547281;-inkscape-stroke:none" d="m 1927.3614,1126.0679 c -5.7208,0 -10.3985,5.8517 -10.3984,13.1348 0,7.2829 4.6776,13.1347 10.3984,13.1347 5.7207,0 10.3983,-5.8518 10.3983,-13.1347 0,-7.2831 -4.6776,-13.1348 -10.3983,-13.1348 z m 0,0.5473 c 5.3451,0 9.8509,5.5383 9.8509,12.5875 0,7.0492 -4.5058,12.5874 -9.8509,12.5874 -5.3453,0 -9.8511,-5.5382 -9.8511,-12.5874 0,-7.0492 4.5058,-12.5875 9.8511,-12.5875 z m -22.4386,12.5875 c -2.7126,0 -5.1847,1.4382 -6.9661,3.7668 -1.7868,2.3291 -2.885,5.5411 -2.885,9.0942 0,3.5545 1.1027,6.9014 2.8861,9.368 1.7835,2.4685 4.2541,4.0404 6.965,4.0404 2.7108,0 5.1803,-1.5719 6.9639,-4.0404 1.7834,-2.4666 2.8872,-5.8135 2.8872,-9.368 0,-3.5531 -1.0992,-6.7651 -2.8862,-9.0942 -1.7812,-2.3286 -4.2524,-3.7668 -6.9649,-3.7668 z m 0,0.5472 c 2.5194,0 4.8305,1.3305 6.5299,3.552 1.7047,2.222 2.7739,5.3218 2.7739,8.7618 0,3.4409 -1.0752,6.6847 -2.7835,9.0473 -1.708,2.3639 -4.0211,3.8138 -6.5203,3.8138 -2.4993,0 -4.8133,-1.4499 -6.5214,-3.8138 -1.7082,-2.3626 -2.7824,-5.6064 -2.7824,-9.0473 0,-3.44 1.068,-6.5398 2.7728,-8.7618 1.6993,-2.2215 4.0115,-3.552 6.531,-3.552 z m -23.5331,12.5875 c -2.7126,0 -5.1847,1.4382 -6.966,3.7668 -1.7869,2.3291 -2.8851,5.5412 -2.8851,9.0943 0,3.5531 1.0982,6.7651 2.8851,9.0942 1.7813,2.3287 4.2534,3.7669 6.966,3.7669 2.7126,0 5.1837,-1.4382 6.965,-3.7669 1.7869,-2.3291 2.8861,-5.5411 2.8861,-9.0942 0,-3.5531 -1.0992,-6.7652 -2.8861,-9.0943 -1.7813,-2.3286 -4.2524,-3.7668 -6.965,-3.7668 z m 0,0.5473 c 2.5194,0 4.8306,1.3304 6.5299,3.5519 1.7047,2.2221 2.7739,5.3219 2.7739,8.7619 0,3.44 -1.0692,6.5387 -2.7739,8.7608 v 8e-4 c -1.6993,2.2215 -4.0105,3.552 -6.5299,3.552 -2.5194,0 -4.8317,-1.3305 -6.531,-3.552 v -8e-4 c -1.7048,-2.2221 -2.7728,-5.3208 -2.7728,-8.7608 0,-3.44 1.068,-6.5398 2.7728,-8.7619 1.6993,-2.2215 4.0116,-3.5519 6.531,-3.5519 z m -25.1748,14.2292 c -2.7127,0 -5.1848,1.4383 -6.9662,3.7669 -1.7869,2.3291 -2.8849,5.5412 -2.8849,9.0943 0,3.5531 1.098,6.7651 2.8849,9.0942 1.7814,2.3286 4.2535,3.7669 6.9662,3.7669 2.7124,0 5.1836,-1.4383 6.9649,-3.7669 1.7869,-2.3291 2.886,-5.5411 2.886,-9.0942 0,-3.5531 -1.0991,-6.7652 -2.886,-9.0943 -1.7813,-2.3286 -4.2525,-3.7669 -6.9649,-3.7669 z m 0,0.5473 c 2.5193,0 4.8304,1.3305 6.5299,3.552 1.7047,2.2221 2.7737,5.3219 2.7737,8.7619 0,3.44 -1.069,6.5387 -2.7737,8.7608 v 8e-4 c -1.6995,2.2215 -4.0106,3.5519 -6.5299,3.5519 -2.5196,0 -4.8317,-1.3304 -6.5312,-3.5519 v -8e-4 c -1.7047,-2.2221 -2.7726,-5.3208 -2.7726,-8.7608 0,-3.44 1.0679,-6.5398 2.7726,-8.7619 1.6995,-2.2215 4.0116,-3.552 6.5312,-3.552 z m -62.3859,36.1911 -168.2343,94.9736 0.2148,0.3805 v 4.1046 l -0.2618,0.1422 0.2618,0.481 v 2.6605 l -0.2618,0.1422 0.2618,0.481 v 13.1348 h 1.0946 v -0.3475 l 167.4605,-93.5807 -0.1144,-0.2042 h 0.1218 v -21.344 h -0.1304 l 0.1251,-0.071 z m -0.5515,1.5681 v 6.7919 l -166.3734,90.5033 v -3.3724 z m 0,7.415 v 2.6606 l -166.3734,90.5033 v -2.6605 z m 0,3.2837 v 2.4126 l -166.3734,90.7984 v -2.7076 z m 0,3.0357 v 4.0052 l -166.3734,91.0955 v -4.3023 z m 0,4.6284 v 1.9946 l -166.3734,92.9736 v -3.8717 z m 134.0839,39.105 c -5.7208,0 -10.3985,5.8516 -10.3984,13.1347 0,7.2829 4.6776,13.1347 10.3984,13.1347 5.7207,0 10.3983,-5.8518 10.3983,-13.1347 0,-7.2831 -4.6776,-13.1347 -10.3983,-13.1347 z m 0,0.5472 c 5.3451,0 9.8509,5.5382 9.8509,12.5875 0,7.0492 -4.5058,12.5874 -9.8509,12.5874 -5.3453,0 -9.8511,-5.5382 -9.8511,-12.5874 0,-7.0493 4.5058,-12.5875 9.8511,-12.5875 z m -22.4386,12.5875 c -2.7126,0 -5.1847,1.4382 -6.9661,3.7669 -1.7868,2.3291 -2.885,5.541 -2.885,9.0941 0,3.5545 1.1027,6.9014 2.8861,9.368 1.7835,2.4685 4.2541,4.0405 6.965,4.0405 2.7108,0 5.1803,-1.572 6.9639,-4.0405 1.7834,-2.4666 2.8872,-5.8135 2.8872,-9.368 0,-3.5531 -1.0992,-6.765 -2.8862,-9.0941 -1.7812,-2.3287 -4.2524,-3.7669 -6.9649,-3.7669 z m 0,0.5472 c 2.5194,0 4.8305,1.3305 6.5299,3.552 1.7047,2.222 2.7739,5.3218 2.7739,8.7618 0,3.4409 -1.0752,6.6848 -2.7835,9.0473 -1.708,2.3639 -4.0211,3.8139 -6.5203,3.8139 -2.4993,0 -4.8133,-1.45 -6.5214,-3.8139 -1.7082,-2.3625 -2.7824,-5.6064 -2.7824,-9.0473 0,-3.44 1.068,-6.5398 2.7728,-8.7618 1.6993,-2.2215 4.0115,-3.552 6.531,-3.552 z m -23.5331,12.5875 c -2.7126,0 -5.1847,1.4383 -6.966,3.7668 -1.7869,2.3292 -2.8851,5.5413 -2.8851,9.0944 0,3.5531 1.0982,6.765 2.8851,9.0941 1.7813,2.3286 4.2534,3.7668 6.966,3.7668 2.7126,0 5.1837,-1.4382 6.965,-3.7668 1.7869,-2.3291 2.8861,-5.541 2.8861,-9.0941 0,-3.5531 -1.0992,-6.7652 -2.8861,-9.0944 -1.7813,-2.3285 -4.2524,-3.7668 -6.965,-3.7668 z m 0,0.5473 c 2.5194,0 4.8306,1.3305 6.5299,3.552 1.7047,2.222 2.7739,5.3218 2.7739,8.7619 0,3.44 -1.0692,6.5387 -2.7739,8.7607 v 0 c -1.6993,2.2214 -4.0105,3.552 -6.5299,3.552 -2.5194,0 -4.8317,-1.3306 -6.531,-3.552 v 0 c -1.7048,-2.222 -2.7728,-5.3207 -2.7728,-8.7607 0,-3.4401 1.068,-6.5399 2.7728,-8.7619 1.6993,-2.2215 4.0116,-3.552 6.531,-3.552 z m -25.1748,14.2293 c -2.7127,0 -5.1848,1.4383 -6.9662,3.7668 -1.7869,2.3291 -2.8849,5.5412 -2.8849,9.0943 0,3.5531 1.098,6.7651 2.8849,9.0942 1.7814,2.3286 4.2535,3.7668 6.9662,3.7668 2.7124,0 5.1836,-1.4382 6.9649,-3.7668 1.7869,-2.3291 2.886,-5.5411 2.886,-9.0942 0,-3.5531 -1.0991,-6.7652 -2.886,-9.0943 -1.7813,-2.3285 -4.2525,-3.7668 -6.9649,-3.7668 z m 0,0.5473 c 2.5193,0 4.8304,1.3304 6.5299,3.552 1.7047,2.222 2.7737,5.3218 2.7737,8.7618 0,3.4401 -1.069,6.5387 -2.7737,8.7608 v 0 c -1.6995,2.2214 -4.0106,3.5519 -6.5299,3.5519 -2.5196,0 -4.8317,-1.3305 -6.5312,-3.5519 v 0 c -1.7047,-2.2221 -2.7726,-5.3207 -2.7726,-8.7608 0,-3.44 1.0679,-6.5398 2.7726,-8.7618 1.6995,-2.2216 4.0116,-3.552 6.5312,-3.552 z m -61.7178,36.7384 -168.2344,94.9746 0.215,0.3805 v 21.1451 h 1.0944 v -0.3474 l 167.4605,-93.5808 -0.1144,-0.2041 h 0.1209 v -21.344 h -0.1293 l 0.125,-0.071 z m -0.5526,1.5691 v 7.0227 l -166.3724,90.5034 v -3.6033 z m 0,7.647 v 2.6594 l -166.3724,90.5034 v -2.6616 z m 0,3.2837 v 2.4124 l -166.3724,90.6627 v -2.5739 z m 0,3.0357 v 4.004 l -166.3724,90.9599 v -4.3013 z m 0,4.6283 v 1.7615 l -166.3724,92.9736 v -3.7763 z m 133.4169,40.5138 c -5.7208,0 -10.3985,5.8517 -10.3984,13.1347 0,7.2808 4.6775,13.1347 10.3984,13.1347 5.7208,0 10.3983,-5.8539 10.3983,-13.1347 0,-7.283 -4.6776,-13.1347 -10.3983,-13.1347 z m 0,0.5473 c 5.3451,0 9.8509,5.5383 9.8509,12.5874 0,7.0471 -4.5059,12.5875 -9.8509,12.5875 -5.3452,0 -9.8512,-5.5404 -9.8511,-12.5875 0,-7.0491 4.5058,-12.5874 9.8511,-12.5874 z m -22.4386,12.5874 c -2.7126,0 -5.1847,1.4387 -6.9661,3.769 -1.7864,2.33 -2.885,5.5388 -2.885,9.0921 0,3.5539 1.1026,6.9003 2.8861,9.3658 1.7835,2.4709 4.2544,4.0426 6.965,4.0426 2.7106,0 5.1803,-1.5717 6.9639,-4.0426 1.7831,-2.4655 2.8872,-5.8112 2.8872,-9.3648 0,-3.5532 -1.0997,-6.762 -2.8862,-9.092 -1.7812,-2.3299 -4.2526,-3.7679 -6.9649,-3.7679 z m 0,0.5473 c 2.5194,0 4.8305,1.331 6.5299,3.554 1.7049,2.2234 2.7739,5.3192 2.7739,8.7598 0,3.4403 -1.0753,6.6836 -2.7835,9.0451 -1.708,2.3666 -4.021,3.816 -6.5203,3.816 -2.4994,0 -4.8133,-1.4494 -6.5214,-3.816 -1.7081,-2.3615 -2.7824,-5.6048 -2.7824,-9.0451 0,-3.4406 1.0679,-6.5364 2.7728,-8.7598 1.6993,-2.223 4.0115,-3.554 6.531,-3.554 z m -23.5331,12.5874 c -2.7126,0 -5.1847,1.4388 -6.966,3.769 -1.7865,2.33 -2.8851,5.5389 -2.8851,9.0922 0,3.5536 1.0983,6.762 2.8851,9.0921 1.7813,2.3303 4.2534,3.769 6.966,3.769 2.7126,0 5.1837,-1.4387 6.965,-3.769 1.7867,-2.3301 2.8861,-5.5385 2.8861,-9.0921 0,-3.5533 -1.0996,-6.7622 -2.8861,-9.0922 -1.7812,-2.3299 -4.2527,-3.7679 -6.965,-3.7679 z m 0,0.5473 c 2.5194,0 4.8306,1.331 6.5299,3.5541 1.7049,2.2233 2.7739,5.3192 2.7739,8.7598 0,3.4406 -1.069,6.5364 -2.7739,8.7596 -1.6993,2.2231 -4.0105,3.5542 -6.5299,3.5542 -2.5194,0 -4.8317,-1.3311 -6.531,-3.5542 -1.7049,-2.2232 -2.7728,-5.319 -2.7728,-8.7596 0,-3.4406 1.0679,-6.5365 2.7728,-8.7598 1.6993,-2.2231 4.0116,-3.5541 6.531,-3.5541 z m -25.1748,14.2293 c -2.7127,0 -5.1848,1.4387 -6.9662,3.769 -1.7864,2.3299 -2.8849,5.5389 -2.8849,9.0921 0,3.5537 1.0981,6.7622 2.8849,9.0923 1.7814,2.3302 4.2535,3.7689 6.9662,3.7689 2.7124,0 5.1836,-1.4387 6.9649,-3.7689 1.7868,-2.3301 2.886,-5.5386 2.886,-9.0923 0,-3.5532 -1.0995,-6.7622 -2.886,-9.0921 -1.7813,-2.3299 -4.2528,-3.768 -6.9649,-3.768 z m 0,0.5473 c 2.5193,0 4.8304,1.331 6.5299,3.5541 1.7048,2.2233 2.7737,5.3192 2.7737,8.7597 0,3.4407 -1.0689,6.5365 -2.7737,8.7597 -1.6995,2.2232 -4.0106,3.5542 -6.5299,3.5542 -2.5196,0 -4.8317,-1.331 -6.5312,-3.5542 -1.7048,-2.2232 -2.7726,-5.319 -2.7726,-8.7597 0,-3.4405 1.0678,-6.5364 2.7726,-8.7597 1.6995,-2.2231 4.0116,-3.5541 6.5312,-3.5541 z m -61.1716,35.0966 -168.2333,94.9746 0.2149,0.3805 v 2.3954 l -0.3827,0.2084 0.2619,0.4799 0.1208,-0.065 v 18.1267 h 1.0946 v -0.3475 l 167.4604,-93.5808 -0.1144,-0.2041 h 0.1209 v -21.3439 h -0.1294 l 0.1251,-0.071 z m -0.5515,1.5691 v 5.0837 l -166.3723,90.5022 v -1.6631 z m 0,5.7058 v 1.4804 l -166.3723,90.6371 v -1.6152 z m 0,2.1048 v 3.5946 l -166.3723,90.6605 v -3.6203 z m 0,4.2167 v 4.002 l -166.3723,90.9599 v -4.3003 z m 0,4.6252 v 3.7037 l -166.3723,92.9737 v -5.7176 z m 132.8696,41.9087 c -5.7209,0 -10.3984,5.8539 -10.3984,13.1348 0,7.2808 4.6775,13.1347 10.3984,13.1347 5.7208,0 10.3983,-5.8539 10.3983,-13.1347 0,-7.2809 -4.6775,-13.1348 -10.3983,-13.1348 z m 0,0.5473 c 5.345,0 9.8509,5.5404 9.8509,12.5875 0,7.047 -4.5059,12.5873 -9.8509,12.5873 -5.3452,0 -9.8512,-5.5403 -9.8511,-12.5873 0,-7.0471 4.5059,-12.5875 9.8511,-12.5875 z m -22.4386,12.5875 c -2.7126,0 -5.1847,1.4386 -6.9661,3.7689 -1.7864,2.3301 -2.885,5.5388 -2.885,9.0922 0,3.5539 1.1026,6.9002 2.8861,9.3657 1.7835,2.471 4.2544,4.0427 6.965,4.0427 2.7106,0 5.1803,-1.5717 6.9639,-4.0427 1.7831,-2.4655 2.8872,-5.8111 2.8872,-9.3648 0,-3.5532 -1.0997,-6.762 -2.8862,-9.092 -1.7812,-2.33 -4.2526,-3.768 -6.9649,-3.768 z m 0,0.5471 c 2.5194,0 4.8305,1.331 6.5299,3.5542 1.7049,2.2232 2.7739,5.3192 2.7739,8.7598 0,3.4402 -1.0753,6.6836 -2.7835,9.0451 -1.708,2.3666 -4.021,3.8159 -6.5203,3.8159 -2.4994,0 -4.8133,-1.4493 -6.5214,-3.8159 -1.7081,-2.3615 -2.7824,-5.6049 -2.7824,-9.0451 0,-3.4406 1.0679,-6.5366 2.7728,-8.7598 1.6993,-2.2232 4.0115,-3.5542 6.531,-3.5542 z m -23.5331,12.5876 c -2.7126,0 -5.1847,1.4386 -6.966,3.7689 -1.7865,2.33 -2.8851,5.539 -2.8851,9.0922 0,3.5537 1.0983,6.762 2.8851,9.0921 1.7813,2.3303 4.2534,3.7689 6.966,3.7689 2.7126,0 5.1837,-1.4386 6.965,-3.7689 1.7867,-2.3301 2.8861,-5.5384 2.8861,-9.0921 0,-3.5532 -1.0996,-6.7622 -2.8861,-9.0922 -1.7812,-2.3298 -4.2527,-3.7679 -6.965,-3.7679 z m 0,0.5473 c 2.5194,0 4.8306,1.3309 6.5299,3.5541 1.7049,2.2232 2.7739,5.3191 2.7739,8.7597 0,3.4406 -1.069,6.5365 -2.7739,8.7597 -1.6993,2.2231 -4.0105,3.5542 -6.5299,3.5542 -2.5194,0 -4.8317,-1.3311 -6.531,-3.5542 -1.7049,-2.2232 -2.7728,-5.3191 -2.7728,-8.7597 0,-3.4406 1.0679,-6.5365 2.7728,-8.7597 1.6993,-2.2232 4.0116,-3.5541 6.531,-3.5541 z m -25.1748,14.2292 c -2.7127,0 -5.1848,1.4387 -6.9662,3.769 -1.7864,2.33 -2.8849,5.5389 -2.8849,9.0922 0,3.5537 1.0981,6.762 2.8849,9.092 1.7814,2.3304 4.2535,3.7691 6.9662,3.7691 2.7124,0 5.1836,-1.4387 6.9649,-3.7691 1.7868,-2.33 2.886,-5.5383 2.886,-9.092 0,-3.5533 -1.0995,-6.7622 -2.886,-9.0922 -1.7813,-2.3299 -4.2528,-3.7679 -6.9649,-3.7679 z m 0,0.5474 c 2.5193,0 4.8304,1.331 6.5299,3.5541 1.7048,2.2232 2.7737,5.3191 2.7737,8.7597 0,3.4406 -1.0689,6.5364 -2.7737,8.7597 -1.6995,2.223 -4.0106,3.5541 -6.5299,3.5541 -2.5196,0 -4.8317,-1.3311 -6.5312,-3.5541 -1.7048,-2.2233 -2.7726,-5.3191 -2.7726,-8.7597 0,-3.4406 1.0678,-6.5365 2.7726,-8.7597 1.6995,-2.2231 4.0116,-3.5541 6.5312,-3.5541 z m -60.6244,36.7383 -168.2332,94.9746 0.2148,0.3805 v 21.1451 h 1.0947 v -0.3473 l 167.4604,-93.5808 -0.1144,-0.2041 h 0.1208 v -21.344 h -0.1293 l 0.1251,-0.07 z m -0.5514,1.5691 v 3.9935 l -166.3723,93.1296 v -3.2002 z m 0,4.621 v 1.5274 l -166.3723,94.0159 v -2.4147 z m 0,2.156 v 3.6898 l -166.3723,93.2942 v -2.9671 z m 0,4.3173 v 4.1163 l -166.3723,93.6011 v -4.422 z m 0,4.7449 v 4.5171 l -166.3723,92.9736 v -3.8897 z" />
		</g>
	</g>
</svg>
